<svg width="142" height="33" viewBox="0 0 142 33" fill="none" xmlns="http://www.w3.org/2000/svg">
<rect width="142" height="33" fill="#F5F5F5"/>
<rect width="142" height="33" fill="black"/>
<path d="M11.7735 28V15.6364H13.2707V21.7699H13.4156L18.9695 15.6364H20.9255L15.7338 21.2145L20.9255 28H19.1144L14.8161 22.2528L13.2707 23.9915V28H11.7735ZM23.2512 28V18.7273H24.676V28H23.2512ZM23.9757 17.1818C23.698 17.1818 23.4585 17.0872 23.2573 16.8981C23.0601 16.7089 22.9615 16.4815 22.9615 16.2159C22.9615 15.9503 23.0601 15.7229 23.2573 15.5337C23.4585 15.3446 23.698 15.25 23.9757 15.25C24.2534 15.25 24.4908 15.3446 24.688 15.5337C24.8893 15.7229 24.9899 15.9503 24.9899 16.2159C24.9899 16.4815 24.8893 16.7089 24.688 16.8981C24.4908 17.0872 24.2534 17.1818 23.9757 17.1818ZM27.4786 28V15.6364H28.9033V20.2003H29.0241C29.1287 20.0393 29.2736 19.834 29.4587 19.5845C29.6479 19.331 29.9175 19.1056 30.2677 18.9084C30.6218 18.7071 31.1008 18.6065 31.7045 18.6065C32.4852 18.6065 33.1734 18.8017 33.7691 19.1921C34.3647 19.5825 34.8296 20.1359 35.1636 20.8523C35.4977 21.5687 35.6647 22.4138 35.6647 23.3878C35.6647 24.3698 35.4977 25.221 35.1636 25.9414C34.8296 26.6578 34.3667 27.2132 33.7751 27.6076C33.1835 27.998 32.5013 28.1932 31.7286 28.1932C31.133 28.1932 30.656 28.0946 30.2979 27.8974C29.9397 27.6961 29.664 27.4687 29.4708 27.2152C29.2776 26.9576 29.1287 26.7443 29.0241 26.5753H28.855V28H27.4786ZM28.8792 23.3636C28.8792 24.0639 28.9818 24.6817 29.1871 25.217C29.3923 25.7482 29.6921 26.1648 30.0866 26.4666C30.481 26.7644 30.9639 26.9134 31.5354 26.9134C32.1311 26.9134 32.6281 26.7564 33.0265 26.4425C33.429 26.1245 33.7309 25.6979 33.9321 25.1626C34.1373 24.6233 34.24 24.0237 34.24 23.3636C34.24 22.7116 34.1394 22.1241 33.9381 21.6009C33.7409 21.0736 33.4411 20.6571 33.0386 20.3512C32.6402 20.0413 32.1391 19.8864 31.5354 19.8864C30.9559 19.8864 30.4689 20.0333 30.0745 20.3271C29.6801 20.6168 29.3823 21.0233 29.181 21.5465C28.9798 22.0657 28.8792 22.6714 28.8792 23.3636ZM41.7318 28.1932C40.8383 28.1932 40.0676 27.996 39.4197 27.6016C38.7757 27.2031 38.2787 26.6477 37.9285 25.9354C37.5824 25.219 37.4094 24.3859 37.4094 23.4361C37.4094 22.4863 37.5824 21.6491 37.9285 20.9247C38.2787 20.1963 38.7657 19.6288 39.3895 19.2223C40.0173 18.8118 40.7498 18.6065 41.5869 18.6065C42.0699 18.6065 42.5468 18.687 43.0177 18.848C43.4885 19.009 43.9172 19.2706 44.3035 19.6328C44.6899 19.991 44.9978 20.4659 45.2272 21.0575C45.4566 21.6491 45.5713 22.3776 45.5713 23.2429V23.8466H38.4236V22.6151H44.1224C44.1224 22.0919 44.0178 21.625 43.8085 21.2145C43.6032 20.804 43.3095 20.48 42.9271 20.2425C42.5488 20.0051 42.1021 19.8864 41.5869 19.8864C41.0194 19.8864 40.5284 20.0272 40.1139 20.3089C39.7034 20.5866 39.3875 20.9489 39.1661 21.3956C38.9448 21.8423 38.8341 22.3213 38.8341 22.8324V23.6534C38.8341 24.3537 38.9548 24.9473 39.1963 25.4343C39.4418 25.9173 39.7819 26.2855 40.2165 26.5391C40.6512 26.7886 41.1563 26.9134 41.7318 26.9134C42.1061 26.9134 42.4442 26.861 42.746 26.7564C43.0519 26.6477 43.3155 26.4867 43.5368 26.2734C43.7582 26.0561 43.9292 25.7865 44.05 25.4645L45.4264 25.8509C45.2815 26.3177 45.038 26.7282 44.6959 27.0824C44.3538 27.4325 43.9313 27.7062 43.4282 27.9034C42.9251 28.0966 42.3596 28.1932 41.7318 28.1932ZM47.7385 28V18.7273H49.115V20.1278H49.2116C49.3806 19.669 49.6865 19.2968 50.1292 19.011C50.5719 18.7253 51.0709 18.5824 51.6263 18.5824C51.731 18.5824 51.8618 18.5844 52.0187 18.5884C52.1757 18.5924 52.2944 18.5985 52.3749 18.6065V20.0554C52.3266 20.0433 52.2159 20.0252 52.0429 20.0011C51.8738 19.9729 51.6948 19.9588 51.5056 19.9588C51.0548 19.9588 50.6524 20.0534 50.2982 20.2425C49.9481 20.4277 49.6704 20.6853 49.4651 21.0153C49.2639 21.3413 49.1633 21.7135 49.1633 22.1321V28H47.7385ZM54.2569 15.6364H56.0439L60.2456 25.8991H60.3904L64.5922 15.6364H66.3791V28H64.9785V18.6065H64.8578L60.9941 28H59.6419L55.7782 18.6065H55.6575V28H54.2569V15.6364ZM71.9165 28.2173C71.3289 28.2173 70.7956 28.1067 70.3167 27.8853C69.8377 27.6599 69.4574 27.3359 69.1757 26.9134C68.894 26.4867 68.7531 25.9716 68.7531 25.3679C68.7531 24.8366 68.8577 24.406 69.067 24.076C69.2763 23.742 69.556 23.4804 69.9062 23.2912C70.2563 23.102 70.6427 22.9612 71.0653 22.8686C71.4919 22.772 71.9205 22.6955 72.3511 22.6392C72.9146 22.5668 73.3714 22.5124 73.7215 22.4762C74.0757 22.436 74.3332 22.3696 74.4942 22.277C74.6592 22.1844 74.7417 22.0234 74.7417 21.794V21.7457C74.7417 21.1501 74.5787 20.6873 74.2528 20.3572C73.9308 20.0272 73.4418 19.8622 72.7858 19.8622C72.1056 19.8622 71.5724 20.0111 71.186 20.3089C70.7996 20.6068 70.528 20.9247 70.371 21.2628L69.0187 20.7798C69.2602 20.2164 69.5822 19.7777 69.9846 19.4638C70.3911 19.1458 70.8338 18.9245 71.3128 18.7997C71.7957 18.6709 72.2706 18.6065 72.7375 18.6065C73.0353 18.6065 73.3774 18.6428 73.7638 18.7152C74.1541 18.7836 74.5305 18.9265 74.8927 19.1438C75.2589 19.3612 75.5628 19.6892 75.8042 20.1278C76.0457 20.5665 76.1665 21.1541 76.1665 21.8906V28H74.7417V26.7443H74.6693C74.5727 26.9455 74.4117 27.1609 74.1863 27.3903C73.961 27.6197 73.6611 27.8149 73.2868 27.9759C72.9126 28.1368 72.4558 28.2173 71.9165 28.2173ZM72.1338 26.9375C72.6972 26.9375 73.1721 26.8268 73.5585 26.6055C73.9489 26.3841 74.2427 26.0984 74.4399 25.7482C74.6411 25.3981 74.7417 25.0298 74.7417 24.6435V23.3395C74.6814 23.4119 74.5486 23.4783 74.3433 23.5387C74.1421 23.5951 73.9086 23.6454 73.643 23.6896C73.3814 23.7299 73.1259 23.7661 72.8763 23.7983C72.6308 23.8265 72.4316 23.8506 72.2787 23.8707C71.9084 23.919 71.5623 23.9975 71.2403 24.1062C70.9224 24.2108 70.6648 24.3698 70.4676 24.5831C70.2744 24.7924 70.1778 25.0781 70.1778 25.4403C70.1778 25.9354 70.3609 26.3097 70.7272 26.5632C71.0974 26.8127 71.5663 26.9375 72.1338 26.9375ZM78.7669 28V18.7273H80.1433V20.1278H80.2399C80.4089 19.669 80.7148 19.2968 81.1575 19.011C81.6002 18.7253 82.0993 18.5824 82.6547 18.5824C82.7593 18.5824 82.8901 18.5844 83.0471 18.5884C83.204 18.5924 83.3227 18.5985 83.4032 18.6065V20.0554C83.3549 20.0433 83.2443 20.0252 83.0712 20.0011C82.9022 19.9729 82.7231 19.9588 82.5339 19.9588C82.0832 19.9588 81.6807 20.0534 81.3265 20.2425C80.9764 20.4277 80.6987 20.6853 80.4934 21.0153C80.2922 21.3413 80.1916 21.7135 80.1916 22.1321V28H78.7669ZM86.4202 24.6193L86.396 22.8565H86.6858L90.7426 18.7273H92.5054L88.183 23.098H88.0622L86.4202 24.6193ZM85.0921 28V15.6364H86.5168V28H85.0921ZM90.9841 28L87.3619 23.4119L88.3762 22.4219L92.7952 28H90.9841ZM97.8451 28.1932C96.9516 28.1932 96.1809 27.996 95.5329 27.6016C94.889 27.2031 94.392 26.6477 94.0418 25.9354C93.6957 25.219 93.5226 24.3859 93.5226 23.4361C93.5226 22.4863 93.6957 21.6491 94.0418 20.9247C94.392 20.1963 94.8789 19.6288 95.5028 19.2223C96.1306 18.8118 96.8631 18.6065 97.7002 18.6065C98.1832 18.6065 98.6601 18.687 99.1309 18.848C99.6018 19.009 100.03 19.2706 100.417 19.6328C100.803 19.991 101.111 20.4659 101.34 21.0575C101.57 21.6491 101.685 22.3776 101.685 23.2429V23.8466H94.5368V22.6151H100.236C100.236 22.0919 100.131 21.625 99.9218 21.2145C99.7165 20.804 99.4227 20.48 99.0404 20.2425C98.6621 20.0051 98.2153 19.8864 97.7002 19.8864C97.1327 19.8864 96.6417 20.0272 96.2272 20.3089C95.8167 20.5866 95.5007 20.9489 95.2794 21.3956C95.058 21.8423 94.9474 22.3213 94.9474 22.8324V23.6534C94.9474 24.3537 95.0681 24.9473 95.3096 25.4343C95.5551 25.9173 95.8952 26.2855 96.3298 26.5391C96.7645 26.7886 97.2696 26.9134 97.8451 26.9134C98.2194 26.9134 98.5574 26.861 98.8593 26.7564C99.1652 26.6477 99.4288 26.4867 99.6501 26.2734C99.8715 26.0561 100.043 25.7865 100.163 25.4645L101.54 25.8509C101.395 26.3177 101.151 26.7282 100.809 27.0824C100.467 27.4325 100.045 27.7062 99.5415 27.9034C99.0384 28.0966 98.4729 28.1932 97.8451 28.1932ZM107.884 18.7273V19.9347H103.079V18.7273H107.884ZM104.48 16.5057H105.904V25.3438C105.904 25.7462 105.963 26.0481 106.079 26.2493C106.2 26.4465 106.353 26.5793 106.538 26.6477C106.727 26.7121 106.927 26.7443 107.136 26.7443C107.293 26.7443 107.422 26.7363 107.522 26.7202C107.623 26.7 107.703 26.6839 107.764 26.6719L108.054 27.9517C107.957 27.9879 107.822 28.0241 107.649 28.0604C107.476 28.1006 107.257 28.1207 106.991 28.1207C106.589 28.1207 106.194 28.0342 105.808 27.8612C105.425 27.6881 105.108 27.4245 104.854 27.0703C104.604 26.7161 104.48 26.2694 104.48 25.7301V16.5057Z" fill="white"/>
<path d="M109.773 9V3.18182H111.651C112.063 3.18182 112.408 3.25663 112.685 3.40625C112.963 3.55398 113.172 3.75947 113.312 4.02273C113.455 4.28409 113.526 4.58428 113.526 4.9233C113.526 5.26231 113.455 5.56155 113.312 5.82102C113.172 6.08049 112.964 6.28314 112.688 6.42898C112.411 6.57481 112.068 6.64773 111.659 6.64773H110.06V6.16193H111.645C111.948 6.16193 112.2 6.11174 112.401 6.01136C112.603 5.91098 112.754 5.76799 112.852 5.58239C112.953 5.39678 113.003 5.17708 113.003 4.9233C113.003 4.66951 112.953 4.44792 112.852 4.25852C112.752 4.06723 112.6 3.91951 112.398 3.81534C112.197 3.71117 111.943 3.65909 111.636 3.65909H110.304V9H109.773ZM112.338 6.375L113.77 9H113.156L111.739 6.375H112.338ZM117.487 7.33239V4.63636H117.993V9H117.487V8.27557H117.447C117.345 8.49905 117.183 8.68561 116.962 8.83523C116.74 8.98295 116.469 9.05682 116.149 9.05682C115.871 9.05682 115.624 8.99621 115.408 8.875C115.192 8.75189 115.022 8.57197 114.899 8.33523C114.776 8.09848 114.714 7.80777 114.714 7.46307V4.63636H115.22V7.43182C115.22 7.77273 115.321 8.04735 115.521 8.25568C115.722 8.46212 115.98 8.56534 116.294 8.56534C116.491 8.56534 116.68 8.51799 116.862 8.4233C117.044 8.3286 117.194 8.19034 117.311 8.00852C117.429 7.82481 117.487 7.59943 117.487 7.33239ZM122.263 5.59375L121.8 5.72443C121.755 5.59375 121.691 5.47538 121.607 5.36932C121.524 5.26326 121.415 5.17898 121.281 5.11648C121.148 5.05398 120.983 5.02273 120.786 5.02273C120.491 5.02273 120.248 5.0928 120.059 5.23295C119.87 5.37311 119.775 5.55398 119.775 5.77557C119.775 5.96307 119.839 6.11553 119.968 6.23295C120.099 6.34848 120.299 6.44034 120.57 6.50852L121.229 6.67045C121.595 6.75947 121.869 6.90057 122.05 7.09375C122.234 7.28693 122.326 7.52936 122.326 7.82102C122.326 8.06723 122.258 8.28598 122.121 8.47727C121.985 8.66856 121.795 8.81913 121.55 8.92898C121.308 9.03693 121.027 9.09091 120.707 9.09091C120.281 9.09091 119.929 8.99527 119.653 8.80398C119.376 8.6108 119.199 8.33239 119.121 7.96875L119.607 7.84943C119.67 8.1089 119.792 8.30492 119.974 8.4375C120.157 8.57008 120.399 8.63636 120.698 8.63636C121.033 8.63636 121.301 8.56155 121.502 8.41193C121.703 8.26042 121.803 8.07102 121.803 7.84375C121.803 7.66761 121.745 7.51989 121.627 7.40057C121.51 7.27936 121.332 7.19034 121.093 7.13352L120.38 6.96307C120.001 6.87216 119.721 6.72822 119.539 6.53125C119.357 6.33428 119.266 6.08996 119.266 5.7983C119.266 5.55777 119.332 5.34659 119.462 5.16477C119.593 4.98106 119.773 4.83712 120.002 4.73295C120.231 4.62879 120.493 4.5767 120.786 4.5767C121.186 4.5767 121.505 4.66761 121.744 4.84943C121.984 5.02936 122.157 5.27746 122.263 5.59375ZM126.365 5.59375L125.902 5.72443C125.857 5.59375 125.792 5.47538 125.709 5.36932C125.625 5.26326 125.517 5.17898 125.382 5.11648C125.25 5.05398 125.085 5.02273 124.888 5.02273C124.592 5.02273 124.35 5.0928 124.161 5.23295C123.971 5.37311 123.876 5.55398 123.876 5.77557C123.876 5.96307 123.941 6.11553 124.07 6.23295C124.2 6.34848 124.401 6.44034 124.672 6.50852L125.331 6.67045C125.696 6.75947 125.97 6.90057 126.152 7.09375C126.336 7.28693 126.428 7.52936 126.428 7.82102C126.428 8.06723 126.359 8.28598 126.223 8.47727C126.087 8.66856 125.896 8.81913 125.652 8.92898C125.41 9.03693 125.128 9.09091 124.808 9.09091C124.382 9.09091 124.031 8.99527 123.754 8.80398C123.478 8.6108 123.301 8.33239 123.223 7.96875L123.709 7.84943C123.771 8.1089 123.893 8.30492 124.075 8.4375C124.259 8.57008 124.5 8.63636 124.8 8.63636C125.135 8.63636 125.403 8.56155 125.604 8.41193C125.804 8.26042 125.905 8.07102 125.905 7.84375C125.905 7.66761 125.846 7.51989 125.729 7.40057C125.611 7.27936 125.433 7.19034 125.195 7.13352L124.482 6.96307C124.103 6.87216 123.822 6.72822 123.641 6.53125C123.459 6.33428 123.368 6.08996 123.368 5.7983C123.368 5.55777 123.433 5.34659 123.564 5.16477C123.695 4.98106 123.875 4.83712 124.104 4.73295C124.333 4.62879 124.594 4.5767 124.888 4.5767C125.287 4.5767 125.607 4.66761 125.845 4.84943C126.086 5.02936 126.259 5.27746 126.365 5.59375ZM127.54 9V4.63636H128.049V9H127.54ZM127.799 3.88636C127.695 3.88636 127.606 3.85133 127.532 3.78125C127.458 3.70928 127.421 3.62311 127.421 3.52273C127.421 3.42235 127.458 3.33712 127.532 3.26705C127.606 3.19508 127.695 3.15909 127.799 3.15909C127.903 3.15909 127.992 3.19508 128.066 3.26705C128.14 3.33712 128.177 3.42235 128.177 3.52273C128.177 3.62311 128.14 3.70928 128.066 3.78125C127.992 3.85133 127.903 3.88636 127.799 3.88636ZM130.605 9.09943C130.342 9.09943 130.101 9.0483 129.884 8.94602C129.666 8.84186 129.492 8.69223 129.364 8.49716C129.235 8.30019 129.17 8.06155 129.17 7.78125C129.17 7.56534 129.211 7.38352 129.293 7.2358C129.374 7.08807 129.49 6.96686 129.639 6.87216C129.789 6.77746 129.966 6.70265 130.17 6.64773C130.375 6.5928 130.6 6.55019 130.847 6.51989C131.091 6.48958 131.297 6.46307 131.466 6.44034C131.636 6.41761 131.766 6.38163 131.855 6.33239C131.944 6.28314 131.989 6.2036 131.989 6.09375V5.99148C131.989 5.69413 131.9 5.46023 131.722 5.28977C131.545 5.11742 131.292 5.03125 130.96 5.03125C130.646 5.03125 130.389 5.10038 130.19 5.23864C129.993 5.37689 129.855 5.53977 129.776 5.72727L129.295 5.55398C129.394 5.31534 129.53 5.125 129.705 4.98295C129.879 4.83902 130.074 4.7358 130.29 4.6733C130.506 4.6089 130.724 4.5767 130.946 4.5767C131.113 4.5767 131.286 4.59848 131.466 4.64205C131.648 4.68561 131.816 4.76136 131.972 4.86932C132.127 4.97538 132.253 5.12405 132.349 5.31534C132.446 5.50473 132.494 5.74527 132.494 6.03693V9H131.989V8.30966H131.957C131.897 8.43845 131.807 8.56345 131.688 8.68466C131.568 8.80587 131.419 8.9053 131.239 8.98295C131.059 9.06061 130.848 9.09943 130.605 9.09943ZM130.673 8.63636C130.942 8.63636 131.175 8.5767 131.372 8.45739C131.569 8.33807 131.721 8.17992 131.827 7.98295C131.935 7.78409 131.989 7.56534 131.989 7.3267V6.69602C131.951 6.73201 131.887 6.7642 131.798 6.79261C131.711 6.82102 131.61 6.84659 131.494 6.86932C131.381 6.89015 131.267 6.90814 131.153 6.9233C131.04 6.93845 130.938 6.9517 130.847 6.96307C130.6 6.99337 130.39 7.04072 130.216 7.10511C130.042 7.16951 129.908 7.25852 129.815 7.37216C129.723 7.4839 129.676 7.62784 129.676 7.80398C129.676 8.06913 129.771 8.27462 129.96 8.42045C130.15 8.56439 130.387 8.63636 130.673 8.63636Z" fill="white"/>
</svg>
